<svg width="106" height="124" viewBox="0 0 106 124" fill="none" xmlns="http://www.w3.org/2000/svg">
<path d="M98.464 12.8014L26.7247 0.133397C24.4234 -0.271589 22.0554 0.254043 20.1415 1.5947C18.2275 2.93536 16.9245 4.98128 16.5188 7.28254L0.133029 100.365C-0.0673837 101.505 -0.0411288 102.674 0.210294 103.804C0.461717 104.934 0.933378 106.003 1.59833 106.951C2.26327 107.899 3.10847 108.707 4.08563 109.328C5.06278 109.949 6.15273 110.371 7.29319 110.571L79.0324 123.239C80.1732 123.44 81.3424 123.414 82.4732 123.163C83.604 122.912 84.6742 122.44 85.6226 121.775C86.571 121.11 87.379 120.265 88.0004 119.287C88.6218 118.31 89.0443 117.219 89.2439 116.078L105.63 22.9963C106.031 20.6942 105.502 18.3269 104.158 16.415C102.814 14.5032 100.766 13.2033 98.464 12.8014ZM80.5526 114.558L8.80783 101.89L25.1936 8.8082L96.9328 21.4762L80.5526 114.558ZM31.5771 23.3598C31.7812 22.2097 32.4337 21.1876 33.3911 20.5183C34.3486 19.8491 35.5326 19.5874 36.6829 19.7908L82.3977 27.8597C83.4842 28.05 84.4598 28.6409 85.1317 29.5157C85.8036 30.3904 86.1231 31.4853 86.0269 32.5841C85.9307 33.6829 85.4259 34.7057 84.6122 35.4504C83.7985 36.195 82.7351 36.6075 81.6321 36.6061C81.3737 36.6058 81.1158 36.5837 80.861 36.54L35.1462 28.4656C33.996 28.2615 32.9739 27.609 32.3047 26.6516C31.6354 25.6942 31.3737 24.5101 31.5771 23.3598ZM28.5258 40.7205C28.6262 40.1505 28.838 39.6058 29.1489 39.1177C29.4599 38.6295 29.864 38.2074 30.3381 37.8754C30.8123 37.5435 31.3472 37.3082 31.9123 37.183C32.4774 37.0579 33.0616 37.0452 33.6315 37.1459L79.3464 45.2203C80.4405 45.4033 81.4253 45.9923 82.1042 46.8696C82.7831 47.7469 83.1061 48.8479 83.0088 49.953C82.9114 51.058 82.4008 52.0856 81.579 52.8307C80.7572 53.5757 79.6845 53.9834 78.5753 53.9723C78.3148 53.9728 78.0547 53.9488 77.7987 53.9007L32.0839 45.8317C30.9346 45.6251 29.9143 44.9707 29.2471 44.0124C28.58 43.054 28.3205 41.87 28.5258 40.7205ZM25.469 58.0756C25.6769 56.9284 26.331 55.9105 27.288 55.2446C28.245 54.5787 29.4268 54.3193 30.5747 54.523L53.4211 58.5382C54.5071 58.7285 55.4823 59.319 56.1542 60.1931C56.8262 61.0672 57.146 62.1615 57.0505 63.2599C56.9551 64.3583 56.4513 65.381 55.6387 66.1261C54.826 66.8712 53.7636 67.2846 52.661 67.2846C52.4026 67.2845 52.1446 67.2624 51.8899 67.2186L29.0325 63.1813C27.8834 62.9759 26.8626 62.3229 26.1945 61.3657C25.5264 60.4084 25.2654 59.2251 25.469 58.0756Z" fill="#FF8787"/>
</svg>
