<svg width="125" height="111" viewBox="0 0 125 111" fill="none" xmlns="http://www.w3.org/2000/svg">
<path d="M124.127 101.121L116.273 35.027C116.018 32.8736 114.978 30.8897 113.352 29.4548C111.727 28.02 109.629 27.235 107.46 27.25H88.9375C88.9375 20.2383 86.1521 13.5139 81.1942 8.55586C76.2362 3.59787 69.5117 0.8125 62.5 0.8125C55.4883 0.8125 48.7639 3.59787 43.8059 8.55586C38.8479 13.5139 36.0625 20.2383 36.0625 27.25H17.5177C15.3493 27.235 13.2515 28.02 11.6256 29.4548C9.99973 30.8897 8.95995 32.8736 8.70521 35.027L0.851068 101.121C0.707136 102.354 0.825571 103.604 1.19861 104.789C1.57164 105.974 2.19085 107.066 3.01564 107.995C3.84639 108.927 4.86439 109.674 6.00324 110.186C7.14208 110.699 8.37618 110.965 9.62501 110.969H115.331C116.587 110.972 117.83 110.708 118.977 110.195C120.124 109.683 121.149 108.933 121.984 107.995C122.805 107.064 123.42 105.971 123.79 104.786C124.159 103.602 124.274 102.353 124.127 101.121ZM62.5 9.625C67.1745 9.625 71.6574 11.4819 74.9628 14.7872C78.2681 18.0926 80.125 22.5756 80.125 27.25H44.875C44.875 22.5756 46.7319 18.0926 50.0373 14.7872C53.3426 11.4819 57.8256 9.625 62.5 9.625ZM9.62501 102.156L17.5177 36.0625H36.0625V49.2812C36.0625 50.4499 36.5267 51.5706 37.3531 52.3969C38.1794 53.2233 39.3002 53.6875 40.4688 53.6875C41.6374 53.6875 42.7581 53.2233 43.5844 52.3969C44.4108 51.5706 44.875 50.4499 44.875 49.2812V36.0625H80.125V49.2812C80.125 50.4499 80.5892 51.5706 81.4156 52.3969C82.2419 53.2233 83.3627 53.6875 84.5313 53.6875C85.6999 53.6875 86.8206 53.2233 87.647 52.3969C88.4733 51.5706 88.9375 50.4499 88.9375 49.2812V36.0625H107.526L115.331 102.156H9.62501Z" fill="#FF8787"/>
</svg>
