<svg width="50" height="38" viewBox="0 0 50 38" fill="none" xmlns="http://www.w3.org/2000/svg">
<path d="M47.75 15.125H45.5562L39.9134 2.42969C39.6581 1.8553 39.2416 1.3673 38.7145 1.0248C38.1874 0.682304 37.5723 0.500008 36.9438 0.5H13.0562C12.4277 0.500008 11.8126 0.682304 11.2855 1.0248C10.7584 1.3673 10.3419 1.8553 10.0866 2.42969L4.44375 15.125H2.25C1.81902 15.125 1.4057 15.2962 1.10095 15.601C0.796205 15.9057 0.625 16.319 0.625 16.75C0.625 17.181 0.796205 17.5943 1.10095 17.899C1.4057 18.2038 1.81902 18.375 2.25 18.375H3.875V34.625C3.875 35.487 4.21741 36.3136 4.8269 36.9231C5.4364 37.5326 6.26305 37.875 7.125 37.875H12C12.862 37.875 13.6886 37.5326 14.2981 36.9231C14.9076 36.3136 15.25 35.487 15.25 34.625V31.375H34.75V34.625C34.75 35.487 35.0924 36.3136 35.7019 36.9231C36.3114 37.5326 37.138 37.875 38 37.875H42.875C43.737 37.875 44.5636 37.5326 45.1731 36.9231C45.7826 36.3136 46.125 35.487 46.125 34.625V18.375H47.75C48.181 18.375 48.5943 18.2038 48.899 17.899C49.2038 17.5943 49.375 17.181 49.375 16.75C49.375 16.319 49.2038 15.9057 48.899 15.601C48.5943 15.2962 48.181 15.125 47.75 15.125ZM13.0562 3.75H36.9438L41.9995 15.125H8.00047L13.0562 3.75ZM12 34.625H7.125V31.375H12V34.625ZM38 34.625V31.375H42.875V34.625H38ZM42.875 28.125H7.125V18.375H42.875V28.125ZM10.375 23.25C10.375 22.819 10.5462 22.4057 10.851 22.101C11.1557 21.7962 11.569 21.625 12 21.625H15.25C15.681 21.625 16.0943 21.7962 16.399 22.101C16.7038 22.4057 16.875 22.819 16.875 23.25C16.875 23.681 16.7038 24.0943 16.399 24.399C16.0943 24.7038 15.681 24.875 15.25 24.875H12C11.569 24.875 11.1557 24.7038 10.851 24.399C10.5462 24.0943 10.375 23.681 10.375 23.25ZM33.125 23.25C33.125 22.819 33.2962 22.4057 33.601 22.101C33.9057 21.7962 34.319 21.625 34.75 21.625H38C38.431 21.625 38.8443 21.7962 39.149 22.101C39.4538 22.4057 39.625 22.819 39.625 23.25C39.625 23.681 39.4538 24.0943 39.149 24.399C38.8443 24.7038 38.431 24.875 38 24.875H34.75C34.319 24.875 33.9057 24.7038 33.601 24.399C33.2962 24.0943 33.125 23.681 33.125 23.25Z" fill="white"/>
</svg>
