<svg width="254" height="214" viewBox="0 0 254 214" fill="none" xmlns="http://www.w3.org/2000/svg">
<path d="M166.42 77.3958C178.832 77.3958 191.244 77.3958 204.032 77.3958C204.032 80.3688 204.032 83.3417 204.032 86.4048C194.608 86.5237 185.184 86.6426 175.475 86.7651C175.475 91.8786 175.475 96.9921 175.475 102.26C177.144 102.228 178.813 102.195 180.533 102.162C181.596 102.153 182.659 102.145 183.723 102.142C185.408 102.138 187.091 102.129 188.776 102.086C190.136 102.052 191.494 102.043 192.854 102.051C193.37 102.05 193.886 102.04 194.402 102.021C198.319 101.883 198.319 101.883 199.703 103.103C200.728 104.294 201.513 105.612 202.259 107.003C202.657 107.697 203.108 108.312 203.587 108.949C204.414 110.128 204.61 111.013 204.644 112.49C204.657 112.931 204.671 113.371 204.684 113.825C204.689 114.295 204.693 114.765 204.697 115.249C204.704 115.744 204.712 116.239 204.72 116.734C204.733 117.77 204.739 118.805 204.741 119.841C204.744 120.896 204.761 121.949 204.791 123.004C205.063 132.692 205.063 132.692 202.875 135.184C202.031 135.962 201.156 136.589 200.201 137.215C200.086 137.453 199.971 137.691 199.853 137.936C199.623 137.936 199.393 137.936 199.156 137.936C199.156 138.174 199.156 138.412 199.156 138.657C198.926 138.657 198.696 138.657 198.46 138.657C198.46 138.894 198.46 139.132 198.46 139.377C195.088 139.542 191.716 139.678 188.342 139.78C186.774 139.828 185.208 139.885 183.642 139.964C182.127 140.041 180.613 140.092 179.097 140.125C178.522 140.143 177.947 140.169 177.373 140.204C174.822 140.358 172.639 140.467 170.636 138.636C169.463 137.41 168.447 136.084 167.465 134.693C167.255 134.424 167.045 134.155 166.829 133.878C166.197 132.909 166.303 132.056 166.318 130.903C166.322 130.453 166.325 130.002 166.329 129.538C166.337 129.069 166.346 128.6 166.355 128.116C166.362 127.404 166.362 127.404 166.369 126.678C166.382 125.505 166.4 124.333 166.42 123.161C169.408 123.161 172.396 123.161 175.475 123.161C175.36 125.54 175.245 127.918 175.127 130.368C181.792 130.368 188.458 130.368 195.325 130.368C195.325 124.304 195.325 118.239 195.325 111.99C193.788 111.998 192.251 112.005 190.668 112.013C182.583 112.031 174.503 111.812 166.42 111.63C166.42 100.333 166.42 89.0354 166.42 77.3958ZM168.162 79.558C168.126 80.4991 168.113 81.4305 168.115 82.3719C168.115 82.6666 168.114 82.9613 168.114 83.265C168.113 84.244 168.116 85.223 168.118 86.2021C168.118 86.5351 168.119 86.8682 168.119 87.2113C168.127 94.7543 168.312 102.288 168.51 109.828C182.818 110.006 182.818 110.006 197.415 110.188C197.3 117.442 197.185 124.696 197.067 132.17C189.367 132.17 181.667 132.17 173.734 132.17C173.619 129.792 173.504 127.413 173.385 124.963C172.588 124.956 171.791 124.948 170.969 124.941C170.521 124.936 170.072 124.932 169.61 124.928C168.558 124.831 168.558 124.831 168.162 125.323C167.646 129.531 167.646 129.531 168.812 133.455C169.593 134.429 170.389 135.287 171.296 136.134C171.593 136.507 171.593 136.507 171.897 136.888C172.965 137.816 173.655 137.78 175.039 137.819C175.273 137.828 175.507 137.836 175.747 137.844C176.519 137.869 177.29 137.882 178.062 137.894C178.328 137.899 178.593 137.904 178.867 137.909C180.275 137.935 181.682 137.952 183.09 137.961C184.248 137.971 185.403 137.996 186.56 138.035C193.724 138.606 193.724 138.606 200 135.795C201.706 133.863 202.67 132.156 202.713 129.5C202.722 128.9 202.722 128.9 202.732 128.288C202.746 126.687 202.752 125.086 202.748 123.484C202.745 122.273 202.752 121.065 202.774 119.854C202.872 114.248 202.907 109.937 199.044 105.702C198.736 105.399 198.428 105.095 198.111 104.783C197.997 104.664 197.882 104.545 197.763 104.423C197.005 104.389 196.245 104.38 195.486 104.382C195.248 104.382 195.01 104.382 194.765 104.382C193.976 104.382 193.186 104.385 192.397 104.387C191.85 104.388 191.304 104.389 190.758 104.389C189.318 104.39 187.879 104.394 186.439 104.398C184.712 104.402 182.986 104.404 181.26 104.406C178.635 104.409 176.01 104.416 173.385 104.423C173.385 97.8822 173.385 91.3417 173.385 84.603C176.472 84.6092 176.472 84.6092 179.62 84.6156C180.92 84.6175 182.22 84.6192 183.519 84.6206C185.585 84.6227 187.65 84.6253 189.715 84.6302C191.379 84.6341 193.043 84.6362 194.708 84.6372C195.344 84.6378 195.98 84.6391 196.617 84.6411C197.505 84.6437 198.393 84.6441 199.281 84.6439C199.547 84.6452 199.813 84.6465 200.087 84.6478C201.289 84.7584 201.289 84.7584 202.29 84.2426C202.316 83.3946 202.32 82.5459 202.312 81.6976C202.309 81.2326 202.306 80.7676 202.303 80.2885C202.299 79.9285 202.295 79.5685 202.29 79.1976C197.892 79.1893 193.494 79.1829 189.095 79.1789C187.053 79.1771 185.011 79.1745 182.969 79.1704C181 79.1665 179.031 79.1644 177.062 79.1634C176.309 79.1628 175.556 79.1614 174.803 79.1595C173.752 79.1569 172.701 79.1565 171.65 79.1567C171.178 79.1548 171.178 79.1548 170.697 79.1528C169.319 79.0119 169.319 79.0119 168.162 79.558Z" fill="#F4F4F3" stroke="white"/>
<path d="M134.397 76.5414C134.975 76.5346 135.554 76.5271 136.132 76.519C137.34 76.5062 138.548 76.5058 139.757 76.5137C141.294 76.522 142.829 76.4928 144.366 76.4531C145.559 76.4276 146.752 76.4258 147.946 76.4305C148.512 76.4294 149.078 76.4204 149.644 76.4029C152.175 76.334 154.31 76.3338 156.278 78.1487C157.447 79.3739 158.473 80.6933 159.455 82.0805C159.642 82.3026 159.829 82.5247 160.022 82.7535C160.626 83.7247 160.646 84.3566 160.673 85.5073C160.684 85.9112 160.696 86.3152 160.707 86.7313C160.718 87.394 160.718 87.394 160.729 88.07C160.741 88.5366 160.752 89.0033 160.764 89.4841C160.8 91.0326 160.825 92.5811 160.847 94.1299C160.851 94.3945 160.855 94.659 160.859 94.9315C160.895 97.4332 160.926 99.9348 160.947 102.437C160.973 105.621 161.023 108.803 161.105 111.987C161.161 114.233 161.189 116.479 161.198 118.726C161.204 120.064 161.221 121.399 161.268 122.736C161.432 127.6 161.477 131.942 158.265 135.834C155.578 138.638 152.912 140.666 149.013 140.702C148.505 140.684 147.997 140.665 147.49 140.644C146.943 140.645 146.396 140.649 145.85 140.655C144.716 140.659 143.587 140.638 142.454 140.598C141.018 140.549 139.589 140.558 138.153 140.584C128.614 140.723 128.614 140.723 125.276 137.9C123.348 135.891 122.267 133.947 121.996 131.123C122.033 130.209 122.098 129.296 122.192 128.386C122.217 127.914 122.242 127.442 122.268 126.955C122.333 125.809 122.433 124.664 122.54 123.522C125.414 123.522 128.287 123.522 131.247 123.522C131.362 125.781 131.477 128.04 131.595 130.368C138.031 130.368 144.466 130.368 151.097 130.368C151.212 125.136 151.327 119.904 151.445 114.513C146.5 114.508 146.5 114.508 141.558 114.559C140.109 114.579 138.66 114.579 137.211 114.576C136.45 114.579 135.689 114.589 134.928 114.605C128.604 114.735 128.604 114.735 126.634 113.368C125.81 112.345 125.243 111.358 124.63 110.188C124.33 109.815 124.33 109.815 124.024 109.434C121.953 106.802 121.857 104.624 121.93 101.305C121.932 100.803 121.934 100.302 121.935 99.8009C121.939 98.758 121.951 97.7155 121.97 96.6727C121.994 95.3366 122.004 94.0008 122.009 92.6645C122.014 91.3854 122.026 90.1064 122.038 88.8273C122.04 88.5843 122.042 88.3412 122.044 88.0908C122.05 87.4044 122.062 86.7181 122.074 86.0318C122.08 85.6418 122.086 85.2517 122.092 84.8499C122.192 83.8822 122.192 83.8822 122.889 82.8012C123.119 82.8012 123.348 82.8012 123.585 82.8012C123.7 82.4444 123.815 82.0877 123.933 81.7201C124.163 81.7201 124.393 81.7201 124.63 81.7201C124.719 81.5169 124.809 81.3138 124.901 81.1044C127.103 76.833 130.155 76.5261 134.397 76.5414ZM125.051 82.7532C123.397 86.1449 123.541 90.0525 123.639 93.7579C123.672 95.1852 123.653 96.6046 123.629 98.0319C123.624 102.517 123.812 106.715 126.666 110.302C128.703 112.376 130.912 112.647 133.681 112.68C134.772 112.656 135.859 112.606 136.949 112.553C137.666 112.54 138.383 112.529 139.1 112.522C140.452 112.503 141.802 112.468 143.153 112.415C146.613 112.321 150.074 112.35 153.535 112.35C153.535 119.01 153.535 125.669 153.535 132.531C145.605 132.531 137.676 132.531 129.506 132.531C129.333 129.141 129.333 129.141 129.157 125.684C127.663 125.684 126.169 125.684 124.63 125.684C124.149 130.107 124.149 130.107 125.189 134.252C125.903 134.863 126.614 135.299 127.416 135.774C127.673 136.074 127.93 136.375 128.195 136.685C129.351 137.755 129.875 137.821 131.403 137.877C131.851 137.897 132.299 137.917 132.76 137.937C133.248 137.948 133.736 137.958 134.223 137.967C134.472 137.973 134.72 137.979 134.976 137.985C136.295 138.016 137.613 138.037 138.932 138.048C140.279 138.062 141.622 138.112 142.967 138.172C144.016 138.212 145.063 138.223 146.112 138.227C146.607 138.234 147.102 138.25 147.596 138.278C150.964 138.456 153.259 137.451 155.759 135.14C158.963 131.786 159.166 128.253 159.162 123.715C159.149 122.976 159.132 122.238 159.114 121.499C159.088 120.215 159.094 118.931 159.096 117.647C159.094 115.494 159.069 113.342 159.029 111.19C158.984 108.712 158.97 106.235 158.974 103.756C158.977 101.355 158.963 98.9551 158.938 96.5544C158.928 95.5397 158.923 94.5253 158.923 93.5106C158.921 92.0919 158.892 90.6745 158.86 89.2561C158.862 88.8419 158.864 88.4278 158.866 88.001C158.758 84.6969 157.482 82.9502 155.276 80.639C155.035 80.3688 154.793 80.0985 154.544 79.8201C153.587 78.9182 152.849 78.9886 151.57 78.9482C151.341 78.9393 151.111 78.9304 150.875 78.9212C150.116 78.8947 149.357 78.8796 148.598 78.8668C148.337 78.8614 148.076 78.856 147.807 78.8504C146.421 78.8224 145.036 78.8036 143.65 78.7919C142.512 78.7808 141.376 78.7534 140.238 78.7106C131.687 78.0886 131.687 78.0886 125.051 82.7532Z" fill="#F4F4F3" stroke="white"/>
<path d="M96.0327 76.359C97.252 76.3902 98.4698 76.3822 99.6894 76.3738C100.874 76.3693 102.058 76.3848 103.242 76.4068C103.803 76.4157 104.364 76.4196 104.925 76.4181C109.23 76.4281 109.23 76.4281 111.082 77.8827C111.969 78.8801 112.729 79.8946 113.486 80.9994C113.8 81.2998 114.113 81.6002 114.437 81.9097C115.8 83.6039 115.453 85.8892 115.425 87.972C115.424 88.4623 115.425 88.9525 115.426 89.4428C115.426 90.7695 115.416 92.0959 115.404 93.4226C115.393 94.8105 115.392 96.1985 115.39 97.5865C115.384 100.213 115.37 102.839 115.353 105.466C115.333 108.457 115.323 111.448 115.315 114.439C115.297 120.589 115.266 126.74 115.227 132.891C114.997 132.891 114.767 132.891 114.531 132.891C114.382 133.207 114.382 133.207 114.23 133.53C112.924 136.175 111.214 138.386 108.61 139.738C105.04 140.653 101.316 140.536 97.6606 140.462C96.2113 140.433 94.7674 140.455 93.3183 140.491C83.6366 140.692 83.6366 140.692 80.3437 137.908C78.4189 135.897 77.3426 133.945 77.0716 131.123C77.1078 130.209 77.1732 129.296 77.2675 128.386C77.2926 127.914 77.3178 127.442 77.3437 126.955C77.4084 125.809 77.5083 124.664 77.6157 123.522C80.4888 123.522 83.3619 123.522 86.3221 123.522C86.437 125.781 86.5519 128.04 86.6703 130.368C93.221 130.368 99.7716 130.368 106.521 130.368C106.521 125.136 106.521 119.904 106.521 114.513C104.843 114.566 103.165 114.619 101.436 114.675C100.363 114.693 99.2902 114.71 98.2171 114.719C96.5188 114.734 94.8228 114.755 93.1256 114.823C83.9657 115.174 83.9657 115.174 81.4864 113.456C79.9128 111.852 78.8217 110.038 77.9073 107.965C77.6642 107.314 77.6642 107.314 77.2675 106.945C76.99 104.011 76.9745 101.036 76.9141 98.0896C76.8855 96.7245 76.8454 95.3624 76.7755 93.9989C76.2486 83.4137 76.2486 83.4137 79.5896 79.5636C83.9523 75.3817 90.5111 76.1725 96.0327 76.359ZM80.1276 82.7564C78.4584 86.1506 78.6579 90.1088 78.7716 93.8173C78.8129 95.2557 78.8074 96.6881 78.7959 98.1269C78.8257 103.408 79.1506 107.104 82.8395 110.909C83.0694 111.266 83.2992 111.623 83.5361 111.99C84.219 112.161 84.219 112.161 85.017 112.146C85.3246 112.153 85.6323 112.16 85.9492 112.168C86.2851 112.17 86.6209 112.172 86.9669 112.175C87.3171 112.181 87.6673 112.187 88.0282 112.194C89.1572 112.214 90.2862 112.226 91.4153 112.238C92.1467 112.25 92.8781 112.262 93.6096 112.275C98.6104 112.356 103.608 112.351 108.61 112.351C108.61 119.01 108.61 125.669 108.61 132.531C106.851 132.523 105.091 132.516 103.278 132.508C96.9243 132.495 90.5818 132.667 84.2326 132.891C84.2326 130.513 84.2326 128.134 84.2326 125.684C82.7386 125.684 81.2445 125.684 79.7053 125.684C79.5905 126.858 79.5091 128.02 79.4441 129.197C79.3916 129.684 79.3916 129.684 79.338 130.181C79.2518 132.275 79.7992 133.996 81.0765 135.627C83.4608 138.177 86.8216 138.136 90.0418 138.221C91.3654 138.241 92.6877 138.235 94.0112 138.218C95.3632 138.202 96.7101 138.231 98.0615 138.273C99.1172 138.3 100.172 138.299 101.228 138.291C101.725 138.291 102.222 138.299 102.718 138.317C105.943 138.419 108.243 137.532 110.657 135.322C113.76 132.079 113.883 128.404 113.876 124.034C113.867 123.284 113.854 122.535 113.84 121.786C113.821 120.484 113.83 119.182 113.835 117.88C113.839 115.696 113.82 113.513 113.788 111.329C113.75 108.817 113.748 106.307 113.764 103.795C113.779 101.361 113.771 98.9269 113.751 96.4924C113.743 95.4644 113.743 94.437 113.75 93.409C113.942 86.4095 113.942 86.4095 110.8 80.505C108.61 78.5903 106.149 78.4574 103.401 78.5149C102.873 78.5106 102.345 78.5048 101.817 78.4977C100.716 78.4887 99.6162 78.4978 98.5149 78.5201C97.1176 78.5468 95.7253 78.526 94.3283 78.4931C86.299 78.1747 86.299 78.1747 80.1276 82.7564Z" fill="#F9F9F9" stroke="white"/>
<path d="M65.4269 76.6751C65.5418 94.6317 65.6567 112.588 65.7751 131.089C67.2692 131.208 68.7632 131.327 70.3024 131.449C70.3024 134.422 70.3024 137.395 70.3024 140.458C63.9816 140.458 57.6608 140.458 51.1485 140.458C51.1485 137.485 51.1485 134.513 51.1485 131.449C52.6425 131.449 54.1365 131.449 55.6758 131.449C55.6758 118.25 55.6758 105.05 55.6758 91.4498C53.6072 91.4498 51.5385 91.4498 49.4072 91.4498C48.9112 87.8822 48.5091 84.3337 50.4602 81.1669C55.3083 75.3482 57.2688 76.6751 65.4269 76.6751ZM54.0258 80.3756C53.8521 80.5963 53.6783 80.817 53.4992 81.0444C53.3016 81.2684 53.104 81.4924 52.9005 81.7231C51.5828 83.3633 51.2046 84.5976 51.192 86.7201C51.2926 87.4485 51.3931 88.1768 51.4968 88.9273C53.5654 88.9273 55.634 88.9273 57.7653 88.9273C57.6504 103.554 57.5355 118.181 57.4171 133.251C56.1529 133.251 54.8887 133.251 53.5863 133.251C53.4713 133.37 53.3564 133.489 53.238 133.612C53.238 135.039 53.238 136.466 53.238 137.936C58.1797 137.936 63.1215 137.936 68.2129 137.936C68.2129 136.509 68.2129 135.082 68.2129 133.612C68.098 133.493 67.9831 133.374 67.8647 133.251C66.3707 133.251 64.8766 133.251 63.3374 133.251C63.3374 115.295 63.3374 97.338 63.3374 78.8373C58.0496 78.2464 58.0496 78.2464 54.0258 80.3756Z" fill="#FAFAF9" stroke="white"/>
<path d="M200.549 77.3958C201.698 77.3958 202.848 77.3958 204.032 77.3958C204.032 80.3688 204.032 83.3417 204.032 86.4048C194.608 86.5237 185.184 86.6426 175.475 86.7651C175.475 91.8786 175.475 96.9921 175.475 102.26C177.144 102.228 178.813 102.195 180.533 102.162C181.596 102.153 182.659 102.145 183.723 102.142C185.408 102.138 187.091 102.129 188.776 102.086C190.136 102.052 191.494 102.043 192.854 102.051C193.37 102.05 193.886 102.04 194.402 102.021C198.319 101.883 198.319 101.883 199.703 103.103C200.728 104.294 201.513 105.612 202.259 107.003C202.657 107.697 203.108 108.312 203.587 108.949C204.414 110.128 204.61 111.013 204.644 112.49C204.657 112.931 204.671 113.371 204.684 113.825C204.689 114.295 204.693 114.765 204.697 115.249C204.704 115.744 204.712 116.239 204.72 116.734C204.733 117.77 204.739 118.805 204.741 119.841C204.744 120.896 204.761 121.949 204.791 123.004C205.063 132.692 205.063 132.692 202.875 135.184C202.031 135.962 201.156 136.589 200.201 137.215C200.086 137.453 199.971 137.691 199.853 137.936C199.623 137.936 199.393 137.936 199.156 137.936C199.156 138.174 199.156 138.412 199.156 138.657C198.926 138.657 198.697 138.657 198.46 138.657C198.46 138.894 198.46 139.132 198.46 139.377C195.033 139.466 191.606 139.545 188.179 139.612C186.588 139.643 184.997 139.677 183.406 139.72C181.87 139.76 180.335 139.792 178.799 139.818C178.213 139.829 177.627 139.844 177.041 139.861C176.221 139.886 175.401 139.899 174.58 139.909C174.216 139.924 174.216 139.924 173.845 139.939C173.165 139.941 173.165 139.941 171.992 139.738C171.134 138.826 171.134 138.826 170.599 137.936C170.829 137.341 171.059 136.747 171.296 136.134C171.477 136.308 171.658 136.483 171.845 136.662C172.955 137.389 173.735 137.376 175.045 137.412C175.279 137.42 175.513 137.428 175.754 137.436C176.528 137.459 177.301 137.473 178.075 137.485C178.473 137.493 178.473 137.493 178.88 137.5C180.29 137.525 181.7 137.542 183.109 137.554C184.269 137.565 185.427 137.59 186.586 137.628C193.652 138.219 193.652 138.219 199.874 135.566C201.499 133.712 202.324 132.029 202.364 129.5C202.374 128.9 202.374 128.9 202.384 128.288C202.398 126.687 202.404 125.086 202.399 123.484C202.396 122.273 202.403 121.065 202.425 119.854C202.692 112.726 202.692 112.726 200.085 106.337C196.754 103.09 190.405 104.092 186.176 104.22C184.478 104.264 182.781 104.265 181.083 104.273C178.515 104.29 175.954 104.361 173.385 104.423C173.385 97.8822 173.385 91.3417 173.385 84.603C182.809 84.4841 192.233 84.3651 201.942 84.2426C202.057 82.5778 202.172 80.9129 202.29 79.1976C201.601 79.1976 200.911 79.1976 200.201 79.1976C199.856 78.8409 199.856 78.8409 199.504 78.4769C199.849 78.1201 200.194 77.7634 200.549 77.3958Z" fill="#FAFAFA" stroke="white"/>
<path d="M3.43774 74.8733C5.4032 75.9295 6.89736 77.1837 8.48742 78.7697C8.70515 78.9827 8.92287 79.1956 9.1472 79.4151C9.8024 80.0587 10.452 80.7077 11.0993 81.3597C11.3192 81.5809 11.539 81.8021 11.7656 82.03C15.2505 85.5799 16.7434 89.1338 16.8428 94.2307C16.8451 94.5964 16.8473 94.9622 16.8496 95.3391C16.8558 95.7254 16.8621 96.1117 16.8685 96.5097C16.8872 97.7285 16.8991 98.9471 16.9108 100.166C16.9224 100.999 16.9344 101.831 16.9468 102.664C16.9763 104.691 17.0001 106.719 17.0196 108.747C12.4475 106.522 9.73174 100.397 8.06979 95.7206C6.69051 91.6159 5.94422 87.3012 5.12247 83.049C4.70844 80.9299 4.22069 78.8552 3.63644 76.779C3.43774 75.9544 3.43774 75.9544 3.43774 74.8733Z" fill="#FBFBFB" stroke="white"/>
<path d="M239.554 155.233C239.186 155.509 239.186 155.509 238.811 155.79C235.217 158.528 231.843 161.493 228.584 164.647C223.207 169.728 216.418 174.124 208.907 173.972C209.615 172.685 210.395 171.582 211.323 170.458C212.711 168.733 213.962 166.942 215.198 165.098C218.81 159.767 222.005 156.799 228.409 155.593C230.525 155.278 232.631 155.119 234.765 155.008C235.073 154.989 235.381 154.971 235.698 154.952C235.995 154.936 236.293 154.92 236.599 154.904C236.866 154.889 237.132 154.874 237.407 154.859C238.176 154.873 238.818 155.009 239.554 155.233Z" fill="#FBFBFB" stroke="white"/>
<path d="M100.285 205.597C102.662 206.409 105.123 206.931 107.566 207.485C104.704 210.822 99.1388 212.076 95.0284 212.53C93.6786 212.589 92.3309 212.598 90.98 212.597C90.4038 212.598 90.4038 212.598 89.8159 212.598C87.0767 212.58 84.3937 212.382 81.6733 212.067C78.4635 211.711 75.2676 211.745 72.0437 211.809C72.0437 211.571 72.0437 211.334 72.0437 211.088C72.5362 210.655 72.5362 210.655 73.2313 210.174C73.4874 209.995 73.7435 209.817 74.0073 209.634C74.2859 209.445 74.5645 209.256 74.8515 209.061C75.1352 208.868 75.419 208.675 75.7113 208.476C84.529 202.548 90.4307 202.079 100.285 205.597Z" fill="#FBFBFB" stroke="white"/>
<path d="M5.87555 129.287C11.9089 130.272 19.5082 132.727 23.4445 137.875C25.0387 140.234 25.9814 142.748 26.9449 145.436C28.0179 148.4 29.1408 151.246 30.5941 154.036C30.7115 154.312 30.8288 154.588 30.9498 154.873C30.8349 155.111 30.72 155.348 30.6015 155.593C22.7617 152.115 17.6296 147.109 12.993 139.76C12.4506 138.907 11.9059 138.056 11.3592 137.205C11.2264 136.998 11.0936 136.791 10.9567 136.578C9.81668 134.821 8.59012 133.142 7.32548 131.479C6.2535 130.069 6.2535 130.069 5.87555 129.287Z" fill="#FBFAFA" stroke="white"/>
<path d="M26.0742 22.2611C27.2334 23.6399 27.822 25.2548 28.4902 26.9232C28.613 27.2278 28.7359 27.5324 28.8624 27.8462C31.103 33.49 32.7863 38.9271 30.5866 44.8637C29.5689 47.2733 28.3 49.566 27.0528 51.8543C25.7286 54.2975 24.6243 56.7699 23.6365 59.3779C22.7432 58.2077 22.3555 57.302 22.0258 55.8419C21.9423 55.4828 21.8588 55.1238 21.7728 54.7538C20.292 47.268 21.6442 40.3066 23.7638 33.1252C24.8034 29.5501 25.478 25.9395 26.0742 22.2611Z" fill="#FBFBFB" stroke="white"/>
<path d="M247.912 129.287C247.683 129.526 247.683 129.526 247.449 129.769C245.794 131.586 244.446 133.51 243.123 135.594C242.946 135.872 242.769 136.151 242.587 136.438C242.407 136.721 242.228 137.004 242.043 137.295C237.67 144.187 233.397 150.171 226.124 154.017C225.883 154.145 225.643 154.273 225.395 154.405C223.665 155.278 223.665 155.278 222.489 154.873C222.73 154.411 222.73 154.411 222.976 153.941C224.772 150.409 226.183 146.791 227.477 143.031C229.309 137.864 232.259 134.824 237.041 132.449C239.875 131.166 242.86 130.203 245.822 129.287C246.07 129.21 246.318 129.133 246.573 129.053C247.215 128.927 247.215 128.927 247.912 129.287Z" fill="#FBFAFA" stroke="white"/>
<path d="M76.2227 197.035C78.9419 198.805 81.6088 200.437 84.5808 201.719C84.2326 202.44 84.2326 202.44 83.4164 202.734C73.8335 205.078 65.5825 202.555 56.4977 199.345C54.1604 198.528 51.8311 197.883 49.4072 197.395C49.4072 197.157 49.4072 196.919 49.4072 196.674C59.4542 192.435 66.6931 190.806 76.2227 197.035Z" fill="#FBFBFB" stroke="white"/>
<path d="M14.2336 155.233C21.2408 155.07 29.3861 154.983 34.7806 160.278C36.042 161.771 37.1619 163.341 38.2631 164.963C38.5568 165.391 38.8506 165.819 39.1446 166.246C39.5829 166.884 40.0208 167.522 40.4566 168.162C41.8397 170.179 43.3375 172.083 44.8799 173.972C41.4955 175.139 36.4687 172.603 33.3876 171.089C29.6889 168.99 26.5514 166.167 23.4741 163.213C20.7837 160.641 17.9302 158.328 14.937 156.145C14.7049 155.963 14.4728 155.781 14.2336 155.593C14.2336 155.474 14.2336 155.356 14.2336 155.233Z" fill="#FBFBFA" stroke="white"/>
<path d="M1 102.981C5.47582 104.339 9.96413 107.115 13.5371 110.188C13.7674 110.382 13.9977 110.576 14.235 110.775C17.7969 114.079 18.6324 118.967 19.5445 123.589C19.6628 124.167 19.7816 124.745 19.9009 125.323C20.1253 126.412 20.3469 127.503 20.5655 128.594C20.8776 130.15 21.2083 131.701 21.547 133.251C13.569 129.094 9.54417 121.737 5.95037 113.656C5.1984 111.976 4.42595 110.306 3.65543 108.634C3.51026 108.318 3.36509 108.002 3.21552 107.676C2.49214 106.103 1.75988 104.536 1 102.981Z" fill="#FAFAFA" stroke="white"/>
<path d="M11.7958 46.7654C16.2112 51.2805 21.1989 58.0737 21.313 64.7608C21.2813 67.5329 20.6213 70.0202 19.871 72.6661C18.8754 76.2689 18.0268 79.8393 17.3679 83.5219C15.1769 80.7331 13.8925 77.69 12.9059 74.2652C12.8339 74.0173 12.7619 73.7693 12.6876 73.5139C11.7442 70.0623 11.7476 66.6201 11.7618 63.0589C11.7623 62.5916 11.7628 62.1243 11.7633 61.6428C11.7646 60.4112 11.7681 59.1796 11.7719 57.948C11.7755 56.6869 11.7771 55.4258 11.7788 54.1647C11.7825 51.6983 11.7885 49.2318 11.7958 46.7654Z" fill="#FCFCFC" stroke="white"/>
<path d="M45.5764 1C48.0812 3.59185 47.8164 10.9218 47.8401 14.4458C47.812 17.1493 47.5504 19.4913 46.2729 21.9007C46.1454 22.1534 46.0179 22.4061 45.8866 22.6665C44.6411 24.8303 42.9148 26.5688 41.2403 28.3749C38.9756 30.8482 37.0458 33.5504 35.1288 36.315C34.2836 34.9665 34.3117 33.6129 34.3235 32.0583C34.3254 31.7868 34.3274 31.5153 34.3294 31.2356C34.4934 23.2314 37.9009 16.7688 41.5543 9.94736C42.3067 8.5258 43.0251 7.08874 43.7263 5.6396C43.8905 5.30445 43.8905 5.30445 44.0581 4.96253C44.6786 3.67049 45.1655 2.37821 45.5764 1Z" fill="#FBFBFB" stroke="white"/>
<path d="M224.23 179.017C223.239 180.043 222.01 180.404 220.726 180.931C217.895 182.121 215.213 183.516 212.52 185.008C205.396 188.924 197.904 191.525 189.753 189.827C190.721 188.775 191.715 187.931 192.866 187.102C194.389 185.975 195.824 184.785 197.241 183.521C206.105 175.672 213.385 176.435 224.23 179.017Z" fill="#FBFBFB" stroke="white"/>
<path d="M177.216 207.845C178.76 208.873 180.286 209.932 181.744 211.089C181.744 211.207 181.744 211.326 181.744 211.449C181.398 211.46 181.398 211.46 181.045 211.471C176.4 211.62 171.777 211.835 167.15 212.292C159.602 213.017 152.773 211.946 146.222 207.845C147.02 207.019 147.426 206.929 148.506 206.657C148.831 206.573 149.156 206.489 149.491 206.402C149.842 206.313 150.192 206.225 150.553 206.134C152.929 205.522 155.261 204.871 157.574 204.038C165.078 201.354 170.704 203.671 177.216 207.845Z" fill="#FCFBFB" stroke="white"/>
<path d="M204.38 196.674C203.152 197.521 201.961 197.787 200.549 198.138C197.622 198.895 194.783 199.85 191.93 200.863C184.043 203.621 176.939 204.534 168.858 202.08C169.759 201.351 170.643 200.751 171.663 200.219C171.932 200.076 172.202 199.934 172.479 199.787C172.764 199.637 173.049 199.486 173.342 199.332C175.471 198.195 177.528 197.011 179.523 195.638C187.87 189.901 195.808 193.085 204.38 196.674Z" fill="#FCFBFB" stroke="white"/>
<path d="M207.514 1C208.402 1.91799 208.727 2.94922 209.19 4.13061C210.25 6.74548 211.54 9.1784 212.912 11.6305C217.431 19.7632 219.303 26.5417 219.007 35.9547C217.642 35.484 217.354 34.841 216.525 33.6349C215.218 31.7611 213.806 30.0535 212.269 28.3731C211.693 27.6665 211.693 27.6665 211.693 26.9457C211.464 26.9457 211.234 26.9457 210.997 26.9457C210.397 26.246 209.845 25.5495 209.299 24.8061C209.064 24.4859 209.064 24.4859 208.823 24.1591C205.179 19.0882 205.465 13.7487 206.252 7.73418C206.296 7.39877 206.34 7.06335 206.385 6.71777C206.655 4.77261 207.02 2.89738 207.514 1Z" fill="#FBFBFB" stroke="white"/>
<path d="M252.439 102.981C251.924 104.414 251.266 105.702 250.545 107.035C249.429 109.138 248.479 111.288 247.569 113.495C244.474 121.004 240.278 129.414 232.588 132.891C232.359 132.772 232.129 132.653 231.892 132.531C231.997 132.163 232.103 131.795 232.212 131.416C233.23 127.784 234.054 124.147 234.721 120.428C235.639 115.546 237.701 111.628 241.644 108.688C244.632 106.606 247.801 104.947 251.046 103.342C251.742 102.981 251.742 102.981 252.439 102.981Z" fill="#FAFAFA" stroke="white"/>
<path d="M250.001 74.5129C250.546 75.6403 249.995 76.6295 249.653 77.7787C249.008 80.0344 248.474 82.3004 248.022 84.6058C247.971 84.8615 247.921 85.1172 247.869 85.3806C247.617 86.6646 247.371 87.9495 247.133 89.2363C245.795 96.2421 243.005 102.513 238.161 107.666C237.931 107.666 237.701 107.666 237.464 107.666C237.464 107.904 237.464 108.142 237.464 108.387C237.234 108.387 237.004 108.387 236.768 108.387C236.75 106.143 236.738 103.9 236.729 101.656C236.726 100.894 236.721 100.132 236.715 99.3706C236.707 98.2703 236.703 97.17 236.7 96.0696C236.696 95.7335 236.692 95.3974 236.689 95.0511C236.688 89.7832 238.225 85.6481 241.643 81.7201C242.299 81.0682 242.973 80.4572 243.671 79.855C244.543 79.0986 245.376 78.305 246.214 77.5084C247.423 76.3774 248.608 75.3854 250.001 74.5129Z" fill="#FBFBFB" stroke="white"/>
<path d="M52.215 180.165C53.5011 181.21 54.7197 182.3 55.9152 183.454C58.296 185.735 61.0128 187.576 63.6856 189.467C63.5132 189.824 63.5132 189.824 63.3374 190.188C55.7189 191.446 48.6414 189.254 41.9429 185.633C39.912 184.535 37.8462 183.513 35.7818 182.485C35.2178 182.202 35.2178 182.202 34.6424 181.913C34.2849 181.735 33.9274 181.557 33.559 181.373C33.2406 181.214 32.9223 181.055 32.5943 180.891C31.5983 180.436 30.5943 180.077 29.5568 179.737C29.6717 179.5 29.7866 179.262 29.905 179.017C37.0773 176.667 45.8519 175.41 52.215 180.165Z" fill="#FBFBFB" stroke="white"/>
<path d="M227.016 22.2611C227.801 23.4794 227.891 24.2004 228.105 25.6394C228.664 29.0881 229.612 32.4291 230.545 35.7856C231.638 39.7593 232.372 43.4579 232.349 47.5987C232.348 48.1387 232.348 48.1387 232.346 48.6896C232.297 52.3348 231.639 55.5664 230.499 59.0176C230.269 59.0176 230.039 59.0176 229.803 59.0176C229.65 58.6455 229.497 58.2734 229.34 57.89C227.796 54.1866 226.088 50.6054 224.244 47.0518C221.722 42.1606 221.336 38.0691 222.837 32.7115C224.019 29.1431 225.526 25.6998 227.016 22.2611Z" fill="#FCFCFC" stroke="white"/>
<path d="M241.295 46.7654C241.41 46.7654 241.525 46.7654 241.643 46.7654C241.668 49.5851 241.686 52.4048 241.697 55.2245C241.703 56.5345 241.71 57.8443 241.722 59.1542C241.733 60.423 241.74 61.6916 241.742 62.9604C241.745 63.6699 241.753 64.3793 241.761 65.0888C241.763 71.3734 240.403 78.2068 236.419 83.1615C236.304 83.1615 236.189 83.1615 236.071 83.1615C236.027 82.9463 235.984 82.7311 235.939 82.5093C235.166 78.7145 234.371 74.9409 233.372 71.2022C231.935 65.6912 232.06 61.4103 234.675 56.2628C236.604 52.9284 238.814 49.6854 241.295 46.7654Z" fill="#FBFBFB" stroke="white"/>
<path d="M159.455 84.2426C159.8 84.421 159.8 84.421 160.152 84.603C160.307 90.7804 160.423 96.9571 160.495 103.136C160.529 106.006 160.575 108.875 160.651 111.744C160.717 114.248 160.76 116.751 160.774 119.256C160.783 120.58 160.803 121.901 160.851 123.224C161.019 127.966 161.152 132.262 158.045 136.058C155.427 138.791 152.833 140.622 149.052 140.661C148.543 140.645 148.033 140.628 147.524 140.609C146.976 140.611 146.429 140.615 145.882 140.621C144.747 140.626 143.615 140.608 142.48 140.571C141.042 140.526 139.61 140.538 138.171 140.565C128.603 140.717 128.603 140.717 125.275 137.902C123.347 135.893 122.267 133.947 121.996 131.123C122.033 130.209 122.098 129.296 122.192 128.386C122.217 127.914 122.242 127.442 122.268 126.955C122.333 125.809 122.433 124.664 122.54 123.522C125.414 123.522 128.287 123.522 131.247 123.522C131.247 125.068 131.247 126.613 131.247 128.206C131.132 128.206 131.017 128.206 130.899 128.206C130.899 127.612 130.899 127.017 130.899 126.404C130.381 126.583 130.381 126.583 129.854 126.765C129.624 126.408 129.394 126.051 129.157 125.684C128.069 125.552 128.069 125.552 126.85 125.616C126.117 125.638 125.385 125.661 124.63 125.684C124.63 128.181 124.63 130.678 124.63 133.251C125.09 133.489 125.549 133.727 126.023 133.972C126.474 134.51 126.916 135.055 127.351 135.606C129.087 137.43 130.509 137.632 132.927 137.731C133.408 137.733 133.89 137.734 134.372 137.735C134.877 137.743 135.382 137.752 135.887 137.762C136.944 137.778 138 137.781 139.057 137.777C140.396 137.772 141.73 137.809 143.068 137.857C144.112 137.888 145.155 137.892 146.199 137.889C146.692 137.891 147.184 137.902 147.676 137.924C150.942 138.052 153.161 137.181 155.584 134.966C158.531 131.888 158.747 128.558 158.753 124.382C158.745 123.389 158.722 122.397 158.698 121.405C158.672 120.108 158.679 118.81 158.682 117.513C158.683 115.064 158.656 112.617 158.619 110.17C158.577 107.379 158.568 104.589 158.561 101.798C158.546 96.0657 158.492 90.3346 158.411 84.603C158.755 84.4841 159.1 84.3651 159.455 84.2426Z" fill="#FBFBFB" stroke="white"/>
<path d="M85.1999 83.8389C85.6322 83.8397 86.0645 83.8405 86.5099 83.8413C86.7477 83.8413 86.9855 83.8412 87.2306 83.8412C88.0201 83.8414 88.8097 83.8442 89.5992 83.8471C90.1453 83.8477 90.6913 83.8482 91.2374 83.8486C92.6773 83.85 94.1172 83.8535 95.5571 83.8575C97.2833 83.8618 99.0095 83.8635 100.736 83.8656C103.361 83.8691 105.985 83.876 108.61 83.8822C108.61 91.6119 108.61 99.3416 108.61 107.305C106.017 107.313 103.424 107.32 100.753 107.328C99.5532 107.333 99.5532 107.333 98.3293 107.338C93.5055 107.349 88.7013 107.21 83.8843 106.945C83.8763 103.991 83.8701 101.038 83.8663 98.0837C83.8645 96.7122 83.862 95.3408 83.858 93.9694C83.8543 92.6469 83.8522 91.3244 83.8513 90.002C83.8506 89.4963 83.8494 88.9907 83.8475 88.4851C83.845 87.7793 83.8448 87.0734 83.8448 86.3675C83.844 85.965 83.8432 85.5625 83.8424 85.1478C83.9015 83.8717 83.9569 83.8946 85.1999 83.8389ZM103.923 86.0366C103.327 86.0474 103.327 86.0474 102.719 86.0585C102.288 86.0683 101.858 86.078 101.414 86.088C100.755 86.1008 100.755 86.1008 100.082 86.1138C98.9127 86.1368 97.7436 86.1613 96.5745 86.1867C95.3817 86.2122 94.1889 86.2355 92.996 86.2591C90.6553 86.3054 88.3146 86.3551 85.9738 86.4048C85.9738 92.4696 85.9738 98.5344 85.9738 104.783C91.0507 104.993 96.0733 105.197 101.145 105.166C102.919 105.158 104.693 105.151 106.521 105.143C106.521 98.9596 106.521 92.7759 106.521 86.4048C105.604 85.9306 104.949 86.0155 103.923 86.0366Z" fill="#F4F3F3" stroke="white"/>
<path d="M129.157 83.8823C137.202 83.8823 145.247 83.8823 153.535 83.8823C153.535 91.6119 153.535 99.3416 153.535 107.306C136.575 107.36 136.575 107.36 128.809 106.945C128.747 99.2479 128.936 91.5767 129.157 83.8823ZM131.247 86.4048C131.196 88.102 131.147 89.7992 131.098 91.4965C131.081 92.0713 131.065 92.6461 131.047 93.2209C130.959 96.1844 130.881 99.1476 130.866 102.113C130.863 102.55 130.861 102.988 130.858 103.439C130.79 104.391 130.79 104.391 131.247 104.783C132.337 104.875 133.419 104.939 134.512 104.986C135.027 105.009 135.027 105.009 135.552 105.032C140.847 105.238 146.148 105.165 151.445 105.143C151.445 98.9596 151.445 92.7759 151.445 86.4048C148.737 86.3451 146.028 86.2866 143.319 86.231C142.398 86.2118 141.476 86.1918 140.554 86.1712C139.23 86.1417 137.907 86.1146 136.584 86.088C136.17 86.0783 135.756 86.0686 135.33 86.0585C134.755 86.0477 134.755 86.0477 134.168 86.0366C133.83 86.0294 133.493 86.0222 133.144 86.0148C132.243 86.0043 132.243 86.0043 131.247 86.4048Z" fill="#F0F0EF" stroke="white"/>
<path d="M26.7707 100.098C26.8857 100.098 27.0006 100.098 27.119 100.098C27.1277 100.361 27.1364 100.624 27.1454 100.896C27.1863 102.109 27.2288 103.322 27.2713 104.535C27.285 104.949 27.2987 105.363 27.3128 105.789C27.3934 108.053 27.517 110.299 27.7398 112.553C28.2711 118.721 27.2535 125.107 23.9847 130.368C23.3934 129.243 23.0394 128.138 22.7114 126.904C22.6068 126.514 22.5022 126.123 22.3944 125.721C22.2335 125.112 22.2335 125.112 22.0693 124.49C21.8553 123.688 21.6413 122.886 21.4272 122.084C21.3274 121.706 21.2275 121.327 21.1246 120.937C20.9076 120.131 20.676 119.332 20.4355 118.533C19.3866 114.296 20.2311 110.639 22.297 106.948C23.6551 104.577 25.0234 102.188 26.7707 100.098Z" fill="#F9F9F9" stroke="white"/>
<path d="M216.569 141.539C216.684 141.539 216.799 141.539 216.917 141.539C217.155 142.89 217.385 144.241 217.614 145.593C217.68 145.97 217.747 146.346 217.815 146.734C218.658 151.783 218.776 156.312 215.872 160.638C215.065 161.601 214.227 162.525 213.382 163.451C211.479 165.598 209.869 168.018 208.211 170.368C207.981 170.249 207.751 170.13 207.514 170.008C207.27 161.757 209.314 155.667 213.21 148.581C214.466 146.29 215.554 143.956 216.569 141.539Z" fill="#FAFAF9" stroke="white"/>
<path d="M47.6659 37.3961C47.6659 37.7529 47.6659 38.1096 47.6659 38.4772C47.4361 38.4772 47.2062 38.4772 46.9694 38.4772C46.8832 38.6751 46.7971 38.8729 46.7082 39.0768C46.1854 40.0879 45.5546 40.9455 44.8799 41.8555C43.8439 43.2588 42.84 44.6769 41.869 46.1291C38.4093 51.2718 34.1775 56.3708 28.1637 58.2968C27.819 58.2968 27.4742 58.2968 27.119 58.2968C27.6084 56.6682 28.2335 55.1459 28.9473 53.6122C29.5937 52.2165 30.2292 50.8269 30.7675 49.3822C32.3482 45.2016 34.3823 42.3017 38.4019 40.4155C41.4211 39.2194 44.5241 38.1893 47.6659 37.3961Z" fill="#F9F9F9" stroke="white"/>
<path d="M170.948 186.224C171.12 186.581 171.12 186.581 171.296 186.945C170.821 188.203 170.166 189.379 169.555 190.571C169.391 190.901 169.227 191.232 169.058 191.572C167.002 195.618 164.575 199.044 160.5 200.998C159.735 201.233 158.962 201.442 158.185 201.631C157.748 201.738 157.312 201.845 156.862 201.955C156.406 202.064 155.95 202.173 155.494 202.282C155.04 202.393 154.587 202.503 154.134 202.614C153.27 202.824 152.407 203.034 151.544 203.242C150.231 203.562 148.922 203.898 147.615 204.242C150.387 196.268 158.289 192.874 165.114 189.512C165.529 189.31 165.944 189.109 166.371 188.901C166.763 188.71 167.154 188.518 167.558 188.321C167.909 188.151 168.26 187.981 168.622 187.806C169.477 187.347 170.199 186.848 170.948 186.224Z" fill="#FAFAF9" stroke="white"/>
<path d="M48.0142 160.278C49.1305 161.403 50.1439 162.546 51.105 163.814C52.2792 165.326 53.5128 166.732 54.8164 168.125C59.1407 172.758 63.5985 178.645 63.7006 185.414C63.6957 185.682 63.6907 185.949 63.6856 186.224C63.529 186.101 63.3723 185.979 63.2109 185.852C61.8324 184.777 60.4456 183.716 59.0495 182.665C58.7267 182.422 58.404 182.179 58.0714 181.929C57.3941 181.422 56.7148 180.918 56.0336 180.417C51.9627 177.407 49.5763 174.501 48.7107 169.287C48.3662 166.295 48.1827 163.286 48.0142 160.278Z" fill="#F9F9F8" stroke="white"/>
<path d="M205.425 37.3961C210.658 38.2696 217.022 39.9169 220.502 44.3527C221.759 46.4068 222.613 48.6751 223.516 50.913C224.138 52.4385 224.796 53.9477 225.449 55.459C225.685 56.0079 225.921 56.5569 226.157 57.106C226.41 57.6955 226.41 57.6955 226.668 58.2968C218.895 55.7315 214.424 50.3098 209.99 43.474C208.778 41.6278 207.466 39.9947 205.976 38.3772C205.425 37.7565 205.425 37.7565 205.425 37.3961Z" fill="#F9F9F9" stroke="white"/>
<path d="M205.077 160.278C205.191 160.278 205.306 160.278 205.425 160.278C205.037 173.148 205.037 173.148 201.115 177.575C199.631 179.017 197.955 180.137 196.251 181.277C194.577 182.398 193.014 183.61 191.478 184.929C190.798 185.503 190.798 185.503 189.753 186.224C190.112 179.178 193.54 173.847 198.111 168.927C199.636 167.181 201.101 165.381 202.573 163.589C202.825 163.284 202.825 163.284 203.081 162.973C203.797 162.098 204.461 161.234 205.077 160.278Z" fill="#F9F9F9" stroke="white"/>
<path d="M224.23 77.3958C225.047 78.1121 225.858 78.8336 226.668 79.558C226.945 79.8018 227.222 80.0457 227.508 80.297C230.815 83.2754 233.748 86.5264 234.678 91.0894C234.852 94.4216 234.56 97.767 234.33 101.089C234.296 101.59 234.263 102.092 234.229 102.593C234.148 103.803 234.065 105.014 233.982 106.224C228.485 100.57 226.86 93.7732 225.754 86.0894C225.325 83.1693 224.896 80.2697 224.23 77.3958Z" fill="#FAFAFA" stroke="white"/>
<path d="M189.753 20.8197C194.996 20.5957 201.578 20.6151 205.925 24.0038C207.665 25.6855 209.013 27.6694 210.362 29.6858C211.84 31.8901 213.485 33.9222 215.176 35.9547C212.753 36.9219 209.209 35.2852 206.92 34.3415C202.695 32.2709 199.344 29.3231 195.988 26.0146C194.313 24.3897 192.501 23.0752 190.585 21.7727C190.31 21.5771 190.036 21.3815 189.753 21.18C189.753 21.0611 189.753 20.9422 189.753 20.8197Z" fill="#FAFAFA" stroke="white"/>
<path d="M188.36 175.053C188.737 176.223 188.684 176.578 188.423 177.743C188.352 178.059 188.282 178.375 188.209 178.7C185.697 189.302 185.697 189.302 181.499 192.012C180.131 192.796 178.714 193.466 177.292 194.137C175.929 194.799 174.605 195.536 173.277 196.269C173.025 196.406 172.773 196.544 172.513 196.686C171.494 197.245 170.515 197.813 169.555 198.476C170.685 193.237 173.154 189.19 176.868 185.503C177.152 185.219 177.435 184.935 177.728 184.643C179.511 182.927 181.407 181.378 183.353 179.867C184.107 179.281 184.828 178.709 185.489 178.012C185.923 177.575 185.923 177.575 186.619 177.575C186.619 177.337 186.619 177.1 186.619 176.855C187.185 176.239 187.765 175.638 188.36 175.053Z" fill="#F9F9F9" stroke="white"/>
<path d="M222.489 121.72C225.271 125.413 227.197 131.136 227.561 135.796C227.022 139.695 225.236 143.195 223.512 146.656C222.643 148.404 221.862 150.191 221.096 151.99C218.99 149.811 218.855 145.081 218.833 142.148C218.869 138.944 219.44 135.953 220.164 132.849C220.654 130.687 221.086 128.51 221.532 126.337C221.714 125.453 221.898 124.57 222.081 123.686C222.16 123.307 222.238 122.928 222.32 122.537C222.404 122.133 222.404 122.133 222.489 121.72Z" fill="#FBFAFA" stroke="white"/>
<path d="M35.8253 56.4951C36.0552 56.614 36.285 56.7329 36.5218 56.8554C36.3571 57.1797 36.1923 57.5039 36.0226 57.838C34.5821 60.7225 33.3203 63.6319 32.1687 66.6527C29.8901 72.5534 26.7955 77.7936 21.5469 81.3597C21.0298 81.5381 21.0298 81.5381 20.5022 81.7201C20.7689 80.1958 21.038 78.6719 21.3075 77.1481C21.3818 76.7233 21.4561 76.2985 21.5326 75.8608C22.6511 69.5559 23.4731 64.9362 28.512 60.8194C29.748 59.964 31.0218 59.2018 32.321 58.4545C32.8143 58.1601 32.8143 58.1601 33.3175 57.8598C35.1126 56.8107 35.1126 56.8107 35.8253 56.4951Z" fill="#FAFAF9" stroke="white"/>
<path d="M82.4913 186.584C82.7593 186.738 83.0273 186.892 83.3034 187.05C85.5079 188.292 87.7196 189.48 89.9964 190.575C96.9427 193.92 102.014 197.073 106.173 203.881C106 204.238 106 204.238 105.824 204.602C105.495 204.489 105.165 204.375 104.826 204.259C102.233 203.385 99.6572 202.635 96.9874 202.057C92.3285 201.018 89.254 199.688 86.5357 195.4C82.4913 188.732 82.4913 188.732 82.4913 186.584Z" fill="#F9F9F9" stroke="white"/>
<path d="M217.265 56.4951C218.949 57.0027 220.39 57.7626 221.88 58.7023C222.108 58.8463 222.337 58.9903 222.572 59.1386C226.305 61.5315 229.608 63.9505 230.695 68.5671C230.815 69.1913 230.934 69.8159 231.046 70.4419C231.232 71.471 231.432 72.497 231.632 73.5234C232.011 75.4686 232.385 77.415 232.754 79.3624C232.912 80.1548 233.088 80.9371 233.285 81.7201C225.993 78.1391 222.911 70.7069 220.107 63.402C219.274 61.2381 218.42 59.2139 217.265 57.2158C217.265 56.978 217.265 56.7401 217.265 56.4951Z" fill="#FAFAFA" stroke="white"/>
<path d="M226.668 100.098C227.579 100.998 228.324 101.865 228.986 102.973C229.148 103.243 229.309 103.512 229.475 103.79C229.641 104.073 229.806 104.356 229.977 104.648C230.147 104.938 230.317 105.228 230.493 105.526C232.719 109.38 234.349 113.079 233.344 117.623C232.954 119.14 232.522 120.644 232.088 122.148C231.867 122.926 231.647 123.704 231.428 124.483C231.23 125.187 231.028 125.89 230.826 126.593C230.529 127.731 230.315 128.843 230.151 130.008C229.921 130.008 229.691 130.008 229.454 130.008C227.188 125.098 225.903 121.206 225.906 115.751C225.906 115.348 225.906 114.945 225.906 114.529C225.934 109.704 226.289 104.906 226.668 100.098Z" fill="#FBFBFB" stroke="white"/>
<path d="M28.8602 77.7562C29.3293 79.2122 28.9478 80.3374 28.6208 81.7877C28.1026 84.1713 27.6741 86.5483 27.3249 88.9647C26.3494 95.6394 24.7155 101.809 19.4574 106.224C19.3196 103.462 19.2055 100.7 19.1092 97.9362C19.0963 97.5807 19.0834 97.2252 19.0702 96.859C18.8725 90.7103 19.6466 87.2685 23.765 82.687C25.3848 80.9572 27.1156 79.349 28.8602 77.7562Z" fill="#FBFBFB" stroke="white"/>
<path d="M60.3554 21.1575C60.6766 21.1591 60.9978 21.1607 61.3288 21.1624C62.1144 21.1666 62.9 21.1725 63.6856 21.18C63.4391 21.3826 63.1927 21.5851 62.9388 21.7938C62.2744 22.3467 61.6151 22.9061 60.9608 23.4717C60.6317 23.756 60.3027 24.0402 59.9636 24.3331C59.6319 24.6212 59.3001 24.9092 58.9583 25.2059C58.1136 25.8647 58.1136 25.8647 57.417 25.8647C57.417 26.1025 57.417 26.3403 57.417 26.5854C56.5318 27.4248 55.5904 28.1777 54.6501 28.9502C54.0027 29.4847 53.3635 30.0302 52.7401 30.5944C48.9131 34.0077 43.7213 36.447 38.6114 36.315C39.4744 34.8784 40.4403 33.586 41.4844 32.2835C43.3169 29.9925 45.0269 27.6185 46.6212 25.144C46.851 25.144 47.0809 25.144 47.3177 25.144C47.3177 24.9061 47.3177 24.6683 47.3177 24.4232C50.7281 21.2783 56.0329 21.1156 60.3554 21.1575Z" fill="#F9F9F9" stroke="white"/>
<path d="M65.0786 175.413C65.3269 175.676 65.5751 175.939 65.8309 176.21C66.7599 177.154 67.7116 178.022 68.7135 178.882C68.9811 179.112 68.9811 179.112 69.2541 179.347C70.4363 180.358 71.6402 181.335 72.8563 182.302C77.6729 186.147 82.5816 190.941 83.8843 197.395C83.7694 197.752 83.6545 198.108 83.536 198.476C83.3291 198.342 83.1221 198.208 82.9089 198.07C81.0496 196.889 79.1712 195.844 77.1995 194.88C72.6369 192.637 69.2656 190.738 67.2538 185.696C66.1125 182.345 65.2408 178.98 65.0786 175.413Z" fill="#FAF9F9" stroke="white"/>
<path d="M30.9498 121.72C31.0647 121.72 31.1796 121.72 31.298 121.72C31.3748 122.304 31.3748 122.304 31.4531 122.901C31.9345 126.371 32.5977 129.74 33.4311 133.139C35.0707 139.951 35.0843 145.678 32.6911 152.35C31.9404 151.185 31.4335 149.983 30.9063 148.702C29.877 146.228 28.7912 143.788 27.6684 141.358C25.7332 137.156 26.1348 133.248 27.5911 128.975C28.5173 126.464 29.7245 124.086 30.9498 121.72Z" fill="#FAFAFA" stroke="white"/>
<path d="M36.8701 141.9C37.6153 143.056 38.1955 144.259 38.7855 145.503C39.5793 147.172 40.3876 148.827 41.2491 150.46C43.0621 153.903 44.5536 157.213 45.5764 160.999C45.6392 161.219 45.702 161.439 45.7667 161.665C45.9557 162.592 45.9638 163.446 45.9587 164.394C45.9576 164.763 45.9564 165.133 45.9553 165.513C45.9524 165.896 45.9495 166.28 45.9464 166.674C45.9449 167.063 45.9433 167.452 45.9417 167.853C45.9376 168.811 45.9319 169.77 45.9247 170.728C44.8801 169.675 43.9212 168.629 43.0516 167.418C42.1492 166.19 41.1965 165.054 40.1785 163.927C37.1502 160.488 35.3399 157.281 35.3682 152.598C35.3689 152.284 35.3697 151.971 35.3704 151.648C35.4154 148.577 35.5185 144.697 36.8701 141.9Z" fill="#FAFAFA" stroke="white"/>
<path d="M117.317 45.324C119.754 45.324 119.754 45.324 120.733 46.2221C121.045 46.6222 121.35 47.029 121.648 47.4411C121.811 47.6531 121.974 47.8652 122.141 48.0837C122.472 48.5153 122.799 48.9494 123.123 49.3861C123.777 50.2668 124.455 51.1273 125.131 51.9906C125.545 52.5308 125.958 53.0714 126.371 53.6122C126.831 54.2068 127.291 54.8014 127.764 55.414C127.879 52.0843 127.994 48.7546 128.113 45.324C128.802 45.324 129.492 45.324 130.202 45.324C130.202 49.8429 130.202 54.3618 130.202 59.0176C128.461 59.3779 128.461 59.3779 127.757 59.1738C126.784 58.445 126.135 57.5115 125.435 56.5176C125.129 56.094 124.823 55.6707 124.516 55.2479C124.361 55.0348 124.207 54.8217 124.048 54.6021C123.107 53.3221 122.108 52.0905 121.116 50.8518C120.527 50.1057 119.965 49.3378 119.406 48.5672C119.291 52.1347 119.176 55.7023 119.058 59.3779C118.483 59.3779 117.909 59.3779 117.317 59.3779C117.317 54.7401 117.317 50.1023 117.317 45.324Z" fill="#F7F7F6" stroke="white"/>
<path d="M132.626 111.907C132.968 111.907 133.31 111.907 133.662 111.908C134.389 111.909 135.115 111.912 135.842 111.916C136.924 111.922 138.006 111.923 139.088 111.923C143.911 111.932 148.719 112.093 153.535 112.351C153.535 113.183 153.535 114.015 153.535 114.873C153.24 114.756 152.945 114.639 152.641 114.518C151.371 114.13 150.356 114.065 149.034 114.07C148.803 114.07 148.572 114.07 148.334 114.07C147.576 114.071 146.819 114.076 146.061 114.082C145.533 114.083 145.005 114.084 144.477 114.085C143.093 114.088 141.709 114.095 140.324 114.103C138.91 114.11 137.495 114.113 136.08 114.117C133.308 114.125 130.536 114.137 127.764 114.152C127.649 113.677 127.534 113.201 127.416 112.711C129.114 111.788 130.759 111.892 132.626 111.907Z" fill="#FAFAFA" stroke="white"/>
<path d="M171.296 136.134C171.476 136.309 171.655 136.484 171.841 136.665C172.977 137.402 173.78 137.359 175.117 137.371C175.358 137.375 175.6 137.378 175.848 137.382C176.643 137.393 177.439 137.396 178.234 137.4C178.786 137.406 179.339 137.412 179.891 137.419C181.343 137.436 182.795 137.447 184.247 137.456C185.729 137.467 187.211 137.484 188.694 137.5C191.601 137.531 194.508 137.556 197.415 137.576C197.185 138.17 196.955 138.765 196.718 139.377C193.519 139.466 190.319 139.545 187.119 139.612C185.633 139.643 184.147 139.677 182.662 139.72C181.228 139.76 179.794 139.792 178.36 139.818C177.813 139.829 177.266 139.844 176.719 139.861C175.953 139.886 175.187 139.899 174.42 139.909C173.984 139.92 173.548 139.93 173.099 139.941C171.992 139.738 171.992 139.738 171.144 138.826C170.964 138.532 170.785 138.239 170.599 137.936C170.829 137.341 171.059 136.747 171.296 136.134Z" fill="#FCFCFC" stroke="white"/>
<path d="M154.58 45.324C157.338 45.324 160.096 45.324 162.938 45.324C162.938 45.7997 162.938 46.2753 162.938 46.7654C160.869 46.7654 158.801 46.7654 156.669 46.7654C156.669 48.3114 156.669 49.8573 156.669 51.4501C158.163 51.4501 159.657 51.4501 161.197 51.4501C161.197 51.9257 161.197 52.4014 161.197 52.8915C159.703 52.8915 158.209 52.8915 156.669 52.8915C156.784 54.4374 156.899 55.9834 157.018 57.5761C159.086 57.6951 161.155 57.814 163.286 57.9365C163.171 58.4122 163.056 58.8879 162.938 59.3779C161.741 59.3988 160.544 59.4117 159.346 59.423C159.006 59.429 158.666 59.4351 158.316 59.4413C157.989 59.4436 157.663 59.4459 157.326 59.4483C157.025 59.4521 156.724 59.4559 156.414 59.4598C155.624 59.3779 155.624 59.3779 154.58 58.6572C154.487 57.6348 154.459 56.6919 154.478 55.6702C154.479 55.3753 154.481 55.0803 154.482 54.7765C154.488 53.8327 154.501 52.8892 154.514 51.9456C154.52 51.3065 154.524 50.6674 154.529 50.0283C154.539 48.46 154.56 46.8923 154.58 45.324Z" fill="#F1F0EF" stroke="white"/>
<path d="M146.57 45.324C146.57 45.9186 146.57 46.5131 146.57 47.1258C146.185 47.185 146.185 47.185 145.793 47.2454C143.625 47.61 142.009 47.9189 140.388 49.5356C139.764 50.7311 139.552 51.9069 139.605 53.2518C140.066 54.4475 140.066 54.4475 140.65 55.414C140.65 55.6518 140.65 55.8897 140.65 56.1347C141.309 56.3176 141.97 56.4971 142.63 56.6752C142.998 56.7756 143.366 56.8759 143.744 56.9793C144.728 57.1938 145.57 57.2618 146.57 57.2158C146.57 57.8104 146.57 58.4049 146.57 59.0176C144.252 59.5061 142.474 59.3047 140.301 58.2968C138.707 56.9627 137.722 55.5648 137.232 53.4996C137.115 51.1182 137.526 49.5727 138.952 47.7339C141.168 45.327 143.474 45.1467 146.57 45.324Z" fill="#F3F3F2" stroke="white"/>
<path d="M96.7697 45.324C96.7697 45.9186 96.7697 46.5132 96.7697 47.1258C96.2202 47.1035 96.2202 47.1035 95.6597 47.0807C94.4224 47.1227 93.6881 47.2959 92.5907 47.8465C92.4743 48.7019 92.4743 48.7019 92.5907 49.6483C93.9222 50.9008 95.611 51.548 97.2295 52.3158C98.2237 52.9291 98.5304 53.2024 98.8592 54.3329C98.9123 55.1325 98.9123 55.1325 98.8375 55.9545C98.8191 56.2258 98.8007 56.4971 98.7817 56.7766C98.3764 57.9735 97.8091 58.3645 96.7697 59.0176C95.5059 59.2498 95.5059 59.2498 94.136 59.3104C93.6831 59.335 93.2301 59.3596 92.7634 59.385C91.7907 59.3794 91.0648 59.3321 90.1529 59.0176C90.1529 58.423 90.1529 57.8284 90.1529 57.2158C90.4595 57.2242 90.7661 57.2325 91.082 57.2411C91.6887 57.2509 91.6887 57.2509 92.3077 57.2608C92.9077 57.2734 92.9077 57.2734 93.5198 57.2862C94.6612 57.2169 95.4117 57.0365 96.4215 56.4951C96.856 55.8377 96.856 55.8377 96.7697 55.0537C95.9686 53.8299 94.8906 53.3478 93.6354 52.7339C91.8775 51.8578 90.8755 51.0415 90.1747 49.1078C90.1447 47.8683 90.4432 47.3621 91.1977 46.4051C92.9772 45.1026 94.6794 45.2086 96.7697 45.324Z" fill="#F4F3F3" stroke="white"/>
<path d="M106.521 45.324C107.21 45.324 107.9 45.324 108.61 45.324C108.61 49.8429 108.61 54.3618 108.61 59.0176C107.217 59.3779 107.217 59.3779 106.521 59.0176C106.521 54.4987 106.521 49.9798 106.521 45.324Z" fill="#F2F2F1" stroke="white"/>
<path d="M159.852 82.6712C160.652 83.721 160.672 84.2311 160.668 85.5558C160.67 85.9701 160.671 86.3845 160.673 86.8114C160.668 87.2645 160.663 87.7176 160.658 88.1844C160.658 88.6674 160.658 89.1505 160.659 89.6335C160.659 90.9439 160.651 92.254 160.641 93.5643C160.633 94.934 160.632 96.3037 160.63 97.6735C160.626 100.267 160.614 102.86 160.6 105.453C160.585 108.406 160.577 111.358 160.57 114.311C160.556 120.384 160.531 126.457 160.5 132.531C160.385 132.531 160.27 132.531 160.152 132.531C160.037 116.714 159.922 100.898 159.804 84.603C159.229 84.603 158.654 84.603 158.062 84.603C157.431 83.8823 157.431 83.8823 157.018 83.1615C157.366 82.4408 157.366 82.4408 158.171 82.1255C159.107 82.0805 159.107 82.0805 159.852 82.6712Z" fill="#D4D3D2" stroke="white"/>
<path d="M98.1627 52.8915C98.7769 53.9795 98.9516 54.7003 98.8375 55.9545C98.8191 56.2258 98.8007 56.4971 98.7817 56.7766C98.3764 57.9735 97.8091 58.3645 96.7697 59.0176C95.5059 59.2498 95.5059 59.2498 94.136 59.3103C93.6831 59.335 93.2301 59.3596 92.7634 59.385C91.7907 59.3793 91.0648 59.3321 90.1529 59.0176C90.1529 58.423 90.1529 57.8284 90.1529 57.2158C90.6128 57.2283 90.6128 57.2283 91.082 57.2411C91.6887 57.2509 91.6887 57.2509 92.3077 57.2608C92.7077 57.2692 93.1077 57.2775 93.5198 57.2862C94.6608 57.2169 95.4136 57.0404 96.4215 56.4951C96.8821 55.4395 96.7838 55.0975 96.4215 53.9726C97.3792 52.8915 97.3792 52.8915 98.1627 52.8915Z" fill="#EEEDEB" stroke="white"/>
<path d="M79.0088 105.864C79.2386 105.864 79.4685 105.864 79.7053 105.864C80.3239 106.67 80.9006 107.476 81.4683 108.319C81.7084 108.666 81.7084 108.666 81.9533 109.021C82.6373 110.024 83.1574 110.815 83.5361 111.99C83.7659 112.109 83.9958 112.228 84.2326 112.35C84.1176 112.588 84.0027 112.826 83.8843 113.071C83.6545 113.071 83.4246 113.071 83.1878 113.071C83.0729 113.428 82.958 113.785 82.8396 114.152C81.4433 112.791 80.3416 111.343 79.2482 109.715C79.0899 109.483 78.9317 109.25 78.7687 109.011C78.3828 108.444 77.9991 107.875 77.6158 107.305C77.9605 107.068 78.3053 106.83 78.6605 106.585C78.7754 106.347 78.8904 106.109 79.0088 105.864Z" fill="#F3F2F2" stroke="white"/>
<path d="M198.808 102.621C199.008 102.881 199.208 103.141 199.413 103.409C199.914 104.053 200.42 104.692 200.934 105.324C201.174 105.621 201.413 105.918 201.659 106.224C201.901 106.522 202.143 106.819 202.393 107.125C203.009 108.06 203.207 108.715 203.335 109.828C202.761 109.947 202.186 110.066 201.594 110.188C198.55 106.16 198.55 106.16 198.329 104.551C198.438 103.769 198.438 103.769 198.808 102.621Z" fill="#F1F0F0" stroke="white"/>
<path d="M202.065 133.317C202.254 133.414 202.444 133.512 202.639 133.612C202.432 134.911 201.933 135.61 201.093 136.585C200.878 136.839 200.663 137.094 200.442 137.356C199.853 137.936 199.853 137.936 199.156 137.936C199.156 138.174 199.156 138.412 199.156 138.657C198.926 138.657 198.696 138.657 198.46 138.657C198.46 138.894 198.46 139.132 198.46 139.377C197.885 139.377 197.31 139.377 196.718 139.377C197.171 137.522 197.989 136.388 199.287 135.076C199.455 134.893 199.623 134.711 199.796 134.523C201.045 133.235 201.045 133.235 202.065 133.317Z" fill="#F2F2F1" stroke="white"/>
<path d="M144.197 56.9906C144.862 57.0505 144.862 57.0505 145.54 57.1116C145.88 57.146 146.22 57.1804 146.57 57.2158C146.57 57.8104 146.57 58.405 146.57 59.0176C144.475 59.4047 143.02 59.3913 140.998 58.6572C140.883 58.3005 140.768 57.9437 140.65 57.5762C141.985 56.6547 142.62 56.8409 144.197 56.9906Z" fill="#EDECEB" stroke="white"/>
<path d="M110.003 77.7562C111.557 78.4673 112.591 79.5071 113.486 80.9994C113.442 82.0579 113.442 82.0579 113.138 82.8012C112.793 82.9201 112.448 83.039 112.093 83.1615C111.173 82.0913 110.254 81.021 109.307 79.9183C109.537 79.5616 109.766 79.2048 110.003 78.8372C110.003 78.4805 110.003 78.1237 110.003 77.7562Z" fill="#F2F2F1" stroke="white"/>
<path d="M96.0732 56.8554C96.303 57.3311 96.5329 57.8068 96.7697 58.2969C95.6602 58.9603 94.7335 59.155 93.4613 59.2653C93.1345 59.2964 92.8077 59.3276 92.471 59.3596C91.6132 59.3766 90.9663 59.2816 90.1529 59.0176C90.1529 58.423 90.1529 57.8284 90.1529 57.2158C90.4635 57.22 90.7742 57.2241 91.0943 57.2284C91.7057 57.2333 91.7057 57.2333 92.3295 57.2383C92.9355 57.2446 92.9355 57.2446 93.5538 57.251C94.4746 57.2222 95.202 57.1388 96.0732 56.8554Z" fill="#F3F2F1" stroke="white"/>
<path d="M217.265 56.4951C219.174 57.052 220.788 57.9925 222.489 59.0176C222.144 59.1365 221.8 59.2554 221.444 59.3779C221.444 59.6158 221.444 59.8536 221.444 60.0986C221.215 60.0986 220.985 60.0986 220.748 60.0986C220.518 59.8608 220.288 59.623 220.051 59.3779C219.822 59.6158 219.592 59.8536 219.355 60.0986C218.443 59.2453 217.847 58.3343 217.265 57.2158C217.265 56.978 217.265 56.7401 217.265 56.4951Z" fill="#E6E5E3" stroke="white"/>
<path d="M169.206 133.972C170.398 134.383 170.684 134.665 171.296 135.774C171.165 136.54 171.165 136.54 170.948 137.215C171.063 137.453 171.177 137.691 171.296 137.936C170.412 137.797 169.998 137.683 169.386 136.989C169.24 136.759 169.095 136.529 168.945 136.292C168.796 136.061 168.647 135.83 168.494 135.592C168.329 135.325 168.329 135.325 168.162 135.053C168.506 134.696 168.851 134.34 169.206 133.972Z" fill="#EFEFEE" stroke="white"/>
<path d="M158.759 45.324C160.138 45.324 161.517 45.324 162.938 45.324C162.938 45.7997 162.938 46.2753 162.938 46.7654C161.559 46.7654 160.18 46.7654 158.759 46.7654C158.644 46.5276 158.529 46.2897 158.411 46.0447C158.525 45.8069 158.64 45.569 158.759 45.324Z" fill="#FBFBFB" stroke="white"/>
<path d="M128.112 45.324C128.802 45.324 129.492 45.324 130.202 45.324C129.854 46.0447 129.854 46.0447 128.461 46.7654C128.461 49.7384 128.461 52.7113 128.461 55.7744C128.346 55.7744 128.231 55.7744 128.112 55.7744C128.112 52.3257 128.112 48.8771 128.112 45.324Z" fill="#EFEEEE" stroke="white"/>
<path d="M224.23 77.3958C224.64 77.7297 225.045 78.0685 225.449 78.4093C225.676 78.5975 225.902 78.7856 226.135 78.9794C226.668 79.558 226.668 79.558 226.668 80.639C226.438 80.639 226.208 80.639 225.972 80.639C225.857 80.9958 225.742 81.3525 225.623 81.7201C224.961 80.6914 224.766 80.1275 224.535 78.9499C224.477 78.6586 224.418 78.3674 224.358 78.0673C224.316 77.8457 224.274 77.6241 224.23 77.3958Z" fill="#F1F1F0" stroke="white"/>
<path d="M51.845 180.098C52.6495 180.692 53.4539 181.287 54.2828 181.9C53.938 182.435 53.938 182.435 53.5863 182.981C52.5633 182.688 52.5633 182.688 51.4968 182.26C51.3818 181.903 51.2669 181.546 51.1485 181.179C51.3783 180.822 51.6082 180.465 51.845 180.098Z" fill="#EFEFEE" stroke="white"/>
<path d="M81.0983 200.638C82.3373 200.858 83.4256 201.207 84.5808 201.719C84.4659 201.957 84.351 202.195 84.2325 202.44C81.9938 202.903 81.9938 202.903 81.0983 202.44C81.0983 201.839 81.0983 201.239 81.0983 200.638Z" fill="#EFEFEE" stroke="white"/>
<path d="M129.157 125.323C130.038 126.69 129.932 127.777 129.897 129.355C129.894 129.625 129.891 129.895 129.888 130.173C129.88 130.839 129.867 131.505 129.854 132.17C130.084 132.17 130.313 132.17 130.55 132.17C130.55 132.408 130.55 132.646 130.55 132.891C130.091 132.772 129.631 132.653 129.157 132.531C129.157 130.152 129.157 127.774 129.157 125.323Z" fill="#E8E7E7" stroke="white"/>
<path d="M11.7959 46.7654C12.8281 47.7773 13.6921 48.6332 14.2336 50.0086C13.5441 50.0086 12.8546 50.0086 12.1441 50.0086C12.0292 48.9384 11.9143 47.8681 11.7959 46.7654Z" fill="#EEEEED" stroke="white"/>
<path d="M198.111 136.494C198.808 136.855 198.808 136.855 198.808 136.855L198.111 136.494ZM197.763 136.855C198.307 137.305 198.307 137.305 198.808 137.936C198.699 138.724 198.699 138.724 198.46 139.377C197.885 139.377 197.31 139.377 196.718 139.377C197.371 137.26 197.371 137.26 197.763 136.855Z" fill="#ECECEB" stroke="white"/>
<path d="M217.265 56.4951C217.955 56.7329 218.644 56.9707 219.355 57.2158C219.47 57.8104 219.585 58.405 219.703 59.0176C219.243 59.0176 218.784 59.0176 218.31 59.0176C217.265 57.5504 217.265 57.5504 217.265 56.4951Z" fill="#F3F3F3" stroke="white"/>
<path d="M156.669 132.891C156.784 133.129 156.899 133.367 157.018 133.612C155.945 135.006 154.928 136.145 153.535 137.215C153.535 136.134 153.535 136.134 154.221 135.319C154.657 134.886 154.657 134.886 155.102 134.445C155.393 134.154 155.684 133.862 155.984 133.562C156.21 133.341 156.436 133.119 156.669 132.891Z" fill="#DEDEDC" stroke="white"/>
<path d="M96.4214 56.4951C96.6513 56.4951 96.8811 56.4951 97.1179 56.4951C97.3478 56.7329 97.5776 56.9707 97.8145 57.2158C98.0443 57.3347 98.2741 57.4536 98.511 57.5761C97.7274 58.3194 97.7274 58.3194 96.7697 59.0176C95.9644 58.9275 95.9644 58.9275 95.3767 58.6572C95.7214 58.4194 96.0662 58.1815 96.4214 57.9365C96.4214 57.4608 96.4214 56.9852 96.4214 56.4951Z" fill="#DBDAD7" stroke="white"/>
<path d="M209.952 172.17C210.412 172.17 210.871 172.17 211.345 172.17C211.345 172.77 211.345 173.371 211.345 173.972C210.541 173.972 209.736 173.972 208.907 173.972C209.343 173.071 209.343 173.071 209.952 172.17Z" fill="#EBEBEA" stroke="white"/>
<path d="M189.753 20.8197C191.018 20.8197 192.282 20.8197 193.584 20.8197C193.239 20.998 193.239 20.998 192.888 21.18C192.773 21.4179 192.658 21.6557 192.539 21.9007C192.195 22.0197 191.85 22.1386 191.495 22.2611C190.559 21.5629 190.559 21.5629 189.753 20.8197Z" fill="#E9E8E6" stroke="white"/>
<path d="M157.714 51.8104C158.863 51.8104 160.013 51.8104 161.197 51.8104C161.197 52.1672 161.197 52.5239 161.197 52.8915C159.932 52.7726 158.668 52.6537 157.366 52.5311C157.481 52.2933 157.596 52.0555 157.714 51.8104Z" fill="#F8F8F8" stroke="white"/>
<path d="M227.016 22.2611C227.814 23.499 227.775 24.0576 227.713 25.5043C227.368 25.5043 227.023 25.5043 226.668 25.5043C226.309 24.4995 226.304 24.1105 226.646 23.0719C226.769 22.8043 226.891 22.5368 227.016 22.2611Z" fill="#EEEEED" stroke="white"/>
<path d="M75.178 208.926C75.2929 209.164 75.4078 209.402 75.5262 209.647C74.4212 210.921 73.7267 211.66 72.0437 211.809C72.0437 211.571 72.0437 211.334 72.0437 211.089C72.7293 210.545 72.7293 210.545 73.6108 209.962C73.9017 209.768 74.1926 209.574 74.4924 209.374C74.7186 209.226 74.9449 209.079 75.178 208.926Z" fill="#E0DFDD" stroke="white"/>
<path d="M236.768 105.864C237.342 106.221 237.917 106.578 238.509 106.945C238.394 107.183 238.279 107.421 238.161 107.666C237.931 107.666 237.701 107.666 237.464 107.666C237.464 107.904 237.464 108.142 237.464 108.387C237.234 108.387 237.004 108.387 236.768 108.387C236.768 107.554 236.768 106.722 236.768 105.864Z" fill="#DFDEDB" stroke="white"/>
<path d="M239.554 155.233C238.634 155.828 237.715 156.422 236.768 157.035C236.883 156.44 236.997 155.846 237.116 155.233C238.161 154.873 238.161 154.873 239.554 155.233Z" fill="#E5E4E1" stroke="white"/>
<path d="M16.3231 105.864C16.4381 105.864 16.553 105.864 16.6714 105.864C16.7863 106.815 16.9012 107.767 17.0196 108.747C15.6702 108.116 15.6702 108.116 15.2784 107.305C15.6171 106.818 15.9658 106.337 16.3231 105.864Z" fill="#E3E2E0" stroke="white"/>
<path d="M191.843 188.026C192.039 188.724 192.039 188.724 192.191 189.467C191.843 189.827 191.843 189.827 190.776 189.85C190.27 189.839 190.27 189.839 189.753 189.827C191.059 188.431 191.059 188.431 191.843 188.026Z" fill="#E8E7E5" stroke="white"/>
<path d="M45.5765 1C46.4699 1.92448 46.4612 2.61327 46.6212 3.88286C46.1615 3.88286 45.7018 3.88286 45.2282 3.88286C44.88 3.16215 44.88 3.16215 45.2064 2.03603C45.3896 1.52319 45.3896 1.52319 45.5765 1Z" fill="#DFDEDB" stroke="white"/>
<path d="M53.238 166.764C53.8327 167.226 54.413 167.708 54.9793 168.206C54.9793 168.444 54.9793 168.682 54.9793 168.927C54.4047 169.046 53.8301 169.164 53.238 169.287C53.335 168.964 53.335 168.964 53.4339 168.634C53.6632 167.786 53.6632 167.786 53.238 166.764Z" fill="#DEDDDB" stroke="white"/>
<path d="M228.758 127.846C229.218 127.965 229.677 128.084 230.151 128.206C230.151 128.801 230.151 129.395 230.151 130.008C229.921 130.008 229.691 130.008 229.454 130.008C229.224 129.295 228.995 128.581 228.758 127.846Z" fill="#E3E2E0" stroke="white"/>
<path d="M231.892 79.558C232.122 79.558 232.352 79.558 232.589 79.558C232.818 80.2715 233.048 80.985 233.285 81.7201C232.426 81.3051 231.875 80.9821 231.196 80.2787C231.425 80.0408 231.655 79.803 231.892 79.558Z" fill="#ECECEA" stroke="white"/>
<path d="M53.5863 78.8372C53.9311 78.8372 54.2758 78.8372 54.631 78.8372C54.5161 79.4318 54.4012 80.0264 54.2828 80.639C53.938 80.7579 53.5932 80.8769 53.238 80.9994C53.2232 80.399 53.2239 79.798 53.238 79.1976C53.353 79.0787 53.4679 78.9598 53.5863 78.8372Z" fill="#E7E7E6" stroke="white"/>
</svg>
